PathFileType  4	(X/Y/Z) C:\Users\antoi\Documents\MyRepositories\mobilecap\ResultsAnalysis
DataRate	CameraRate	NumFrames	NumMarkers	Units	OrigDataRate	OrigDataStartFrame	OrigNumFrames
100.0	100.0	4	51	mm	100.0	74	146
Frame#	Time	r_knee			r_shank_antsup			r_ankle			r_calc			r_5meta			r_toe			L_knee			L_shank_antsup			L_ankle			L_calc			L_5meta			L_toe			r_sh2			r_sh3			r_sh4			L_sh2			L_sh3			r_thigh1			r_thigh2			r_thigh3			r_thigh4			r_thigh5			L_thigh1			L_thigh2			L_thigh3			L_thigh4			r.ASIS			r.PSIS			L.ASIS			L.PSIS			C7			R_Shoulder			L_Shoulder			R_Sternum			L_Sternum			R_humerus			R_elbow_med			R_elbow_lat			R_forearm			R_wrist_radius			R_wrist_ulna			L_humerus			L_elbow_med			L_elbow_lat			L_forearm			L_wrist_radius			L_wrist_ulna			R_HJC			L_HJC			R_HJC_reg			L_HJC_reg			
		X1	Y1	Z1	X2	Y2	Z2	X3	Y3	Z3	X4	Y4	Z4	X5	Y5	Z5	X6	Y6	Z6	X7	Y7	Z7	X8	Y8	Z8	X9	Y9	Z9	X10	Y10	Z10	X11	Y11	Z11	X12	Y12	Z12	X13	Y13	Z13	X14	Y14	Z14	X15	Y15	Z15	X16	Y16	Z16	X17	Y17	Z17	X18	Y18	Z18	X19	Y19	Z19	X20	Y20	Z20	X21	Y21	Z21	X22	Y22	Z22	X23	Y23	Z23	X24	Y24	Z24	X25	Y25	Z25	X26	Y26	Z26	X27	Y27	Z27	X28	Y28	Z28	X29	Y29	Z29	X30	Y30	Z30	X31	Y31	Z31	X32	Y32	Z32	X33	Y33	Z33	X34	Y34	Z34	X35	Y35	Z35	X36	Y36	Z36	X37	Y37	Z37	X38	Y38	Z38	X39	Y39	Z39	X40	Y40	Z40	X41	Y41	Z41	X42	Y42	Z42	X43	Y43	Z43	X44	Y44	Z44	X45	Y45	Z45	X46	Y46	Z46	X47	Y47	Z47	X48	Y48	Z48	X49	Y49	Z49	X50	Y50	Z50	X51	Y51	Z51	

74	0.73000000	611.28762	504.80544	2.50326	571.63467	426.73029	11.85767	275.07491	225.32968	-50.59317	202.52624	242.65840	-103.61280	309.08206	68.36443	-25.98889	347.16935	70.31440	-85.59916	863.36407	538.80884	-294.09981	912.47074	425.24466	-305.44530	889.08050	96.62046	-293.83650	817.84286	54.58932	-262.13830	1046.69527	34.32681	-319.46898	1063.43100	63.62868	-253.30479	484.97327	353.19873	5.66485	520.38192	485.04454	20.39630	426.61572	418.09652	6.54294	823.07859	425.19561	-326.88297	836.16653	305.28800	-327.15172	725.60048	809.78393	34.37915	728.28097	702.52577	25.13023	670.00429	673.85035	41.12292	612.55520	806.52876	28.53570	618.60120	691.54871	24.48109	817.94328	862.85335	-312.04359	870.14938	735.15391	-310.77183	711.95467	814.45520	-325.56822	774.20426	688.58340	-322.65860	773.45419	1010.51877	-8.44191	588.03482	1067.83678	-91.28652	787.95762	1021.66434	-266.36690	587.82805	1067.86829	-195.20676	646.35389	1545.75702	-292.49951	690.70995	1580.60049	-121.29806	717.84179	1459.16953	-423.76728	793.20286	1484.75777	-223.25495	796.17508	1462.51080	-276.77039	590.46349	1376.28542	46.90985	553.48905	1266.57815	3.47455	547.58582	1301.94139	78.86501	602.90617	1172.50916	160.78908	641.89396	1071.13141	200.90219	597.20037	1075.02288	203.59211	606.66788	1215.17127	-448.33598	536.17161	1165.30153	-369.42792	547.57985	1148.36587	-435.49660	525.96179	976.04643	-431.33466	522.43039	879.14255	-413.41940	477.62750	887.63311	-415.72297	685.19816	938.18177	-21.50493	697.69727	947.30308	-251.35074	699.51521	948.62138	-44.63572	699.17366	948.67453	-215.29061	
75	0.74000000	634.70879	505.09950	2.33344	593.59694	428.70726	11.83264	292.64281	235.78933	-51.87171	222.74427	258.21695	-105.99861	315.53871	76.55089	-27.13021	355.64677	75.20894	-85.40253	870.75595	539.08400	-294.43561	918.14089	424.75288	-305.31928	889.54363	96.67460	-293.50155	817.87399	54.72212	-262.07908	1046.81677	34.04189	-319.36080	1063.67570	62.76323	-252.92258	504.86350	357.53894	5.45133	543.85846	488.26501	19.47359	448.43652	423.58620	5.06607	828.72958	426.03656	-326.78649	839.97365	305.97459	-326.83464	740.52340	811.89113	33.85346	745.76569	704.69381	25.41268	687.85734	674.92815	41.14821	627.57550	806.09220	27.05325	636.68322	691.64947	24.09673	829.37815	863.12407	-314.46260	879.90617	734.40488	-312.63482	722.47340	816.40141	-326.67368	782.87306	689.54579	-323.31984	784.69443	1012.81627	-9.99372	599.74240	1069.93325	-93.51087	800.40940	1023.80943	-267.70286	600.00749	1070.37729	-197.34136	658.54835	1548.35903	-293.41641	702.97335	1583.12496	-122.14791	730.33549	1462.12352	-424.64198	805.31130	1487.42796	-224.09071	808.33684	1465.19017	-277.64264	602.66515	1378.71018	45.86989	564.99667	1269.55246	2.07302	559.75144	1304.39721	77.73078	614.66413	1174.40894	158.96431	653.22508	1072.60515	198.54180	608.56485	1076.78672	201.41367	622.21779	1216.54248	-450.05729	552.04574	1165.65342	-371.57156	564.28364	1148.73713	-437.65905	544.94862	976.29011	-433.51290	542.73024	879.31561	-415.41823	497.84711	887.15953	-418.34120	696.53059	940.42185	-23.33499	710.01987	949.58018	-253.12135	711.13268	950.31203	-46.77122	711.56945	951.04473	-217.32398	
76	0.75000000	658.36910	505.79251	2.00665	615.98079	431.01471	11.55751	311.11614	246.23745	-53.35932	244.26491	273.15549	-108.85285	323.34693	85.53378	-28.37363	365.83065	80.79397	-84.86432	877.74281	539.31668	-294.62966	923.50386	424.28321	-304.99629	889.92348	96.75171	-293.16295	817.88281	54.79993	-262.04291	1046.88615	33.96076	-319.23388	1063.81670	62.15772	-252.55309	525.31469	362.14985	5.10191	567.85376	491.56840	18.35535	470.84286	429.11130	3.42205	834.19399	426.84813	-326.83079	843.68037	306.65373	-326.66220	755.26186	814.16282	33.37057	763.10469	707.07976	25.72327	705.62717	676.15535	41.14302	642.44482	805.66966	25.55286	654.82154	691.89522	23.69239	840.50485	863.53320	-316.36315	889.63088	734.01385	-313.55875	732.81821	818.39517	-327.83308	791.42096	690.59761	-323.96555	795.71819	1015.07566	-11.51466	611.16457	1071.98832	-95.78574	812.61919	1025.88648	-269.12732	611.91006	1072.82906	-199.47349	670.60329	1551.09135	-294.06901	715.08753	1585.57916	-122.67309	742.69310	1465.31120	-425.27749	817.24533	1490.09912	-224.65668	820.30603	1467.91291	-278.26252	614.71852	1380.94822	45.01377	576.19247	1272.39116	0.83324	571.73270	1306.66183	76.76985	626.37614	1176.13884	157.20548	664.62078	1073.93065	196.18861	619.96792	1078.37718	199.26212	637.86593	1218.06753	-451.83338	568.02885	1166.03421	-373.82544	581.18424	1149.19487	-439.91845	564.46874	976.62475	-435.82398	563.76790	879.58557	-417.56106	518.80504	886.69604	-421.09038	707.62269	942.62670	-25.17791	722.08305	951.79154	-254.90553	722.49820	951.92781	-48.89523	723.72846	953.31524	-219.42112	
77	0.76000000	682.01664	506.96811	1.65063	638.64733	433.62370	11.06576	330.38587	256.52379	-55.14618	266.75624	287.05390	-112.26697	332.86423	95.07706	-29.59034	377.78031	86.82555	-83.98890	884.43185	539.53432	-294.75645	928.64332	423.83958	-304.57991	890.24595	96.83636	-292.87599	817.89596	54.84134	-262.03475	1046.91411	33.99493	-319.11804	1063.88036	61.77152	-252.25022	546.23911	366.94211	4.63127	592.20692	494.92452	17.15204	493.67797	434.61710	1.70561	839.59445	427.62511	-327.17086	847.36561	307.32534	-326.75866	769.79433	816.61266	32.90620	780.28066	709.68649	26.01886	723.28006	677.55964	41.11767	657.17420	805.31592	24.03723	672.96709	692.30210	23.23974	851.40563	864.16754	-317.59236	899.36380	734.08773	-313.63134	743.12189	820.46237	-329.12577	800.03670	691.82479	-324.70124	806.60687	1017.28706	-13.02445	622.33965	1073.99245	-98.01066	824.59120	1027.95323	-270.66187	623.54633	1075.18589	-201.53202	682.51833	1553.92687	-294.46942	727.01694	1587.93174	-122.88937	754.88977	1468.67934	-425.67424	829.00030	1492.74347	-224.97354	832.08866	1470.66213	-278.64690	626.58373	1382.96911	44.31881	587.15512	1274.99469	-0.24918	583.51089	1308.68912	75.94703	638.02065	1177.66445	155.51322	676.05881	1075.08050	193.86152	631.38222	1079.75648	197.15379	653.62342	1219.69577	-453.65562	584.12479	1166.39667	-376.18401	598.27266	1149.71518	-442.24247	584.53073	977.03100	-438.24106	585.50061	879.94593	-419.83212	540.53746	886.25734	-423.96741	718.58038	944.77258	-27.02201	733.90100	953.96281	-256.69520	733.67334	953.52417	-50.98832	735.66705	955.49539	-221.56265	
